<?xml version="1.0" encoding="UTF-8"?>
<!-- Generated by Pixelmator Pro 3.6.18 -->
<svg width="1024" height="1024" viewBox="0 0 1024 1024" xmlns="http://www.w3.org/2000/svg">
    <g id="Group">
        <g id="google-g-logo">
            <path id="Path" fill="#4285f4" stroke="none" d="M 178.857559 685.434875 C 178.857559 660.869202 181.062164 637.248413 185.156418 614.572388 L 511.438751 614.572388 L 511.438751 748.738647 L 324.991699 748.738647 C 333.180267 791.886047 357.745941 828.419617 394.594391 852.985229 L 394.594391 940.224792 L 282.159271 940.224792 C 216.650848 879.755493 178.857559 790.941223 178.857559 685.434875 Z"/>
            <path id="path1" fill="#34a853" stroke="none" d="M 511.438751 1024 C 417.900269 1024 339.479187 993.135498 282.159271 940.224792 L 394.594391 852.985229 C 425.458954 873.771545 464.826996 886.369324 511.438751 886.369324 C 601.512817 886.369324 678.044312 825.585083 705.444458 743.699585 L 820.71405 743.699585 L 820.71405 833.143799 C 763.709167 946.208801 646.864807 1024 511.438751 1024 Z"/>
            <path id="path2" fill="#fbbc05" stroke="none" d="M 705.444458 743.384644 C 712.37323 722.598267 716.467529 700.552185 716.467529 677.561279 C 716.467529 654.570313 712.37323 632.52417 705.444458 611.737915 L 705.444458 522.293701 L 820.71405 522.293701 C 844.3349 568.905457 857.877502 621.50116 857.877502 677.561279 C 857.877502 733.621338 844.3349 786.217041 820.71405 832.828796 L 730.954956 762.911133 L 705.444458 743.384644 Z"/>
            <path id="path3" fill="#ea4335" stroke="none" d="M 511.438751 469.068176 C 460.417786 469.068176 415.065765 486.705017 378.847229 520.718994 L 279.639709 421.511475 C 339.794067 365.451416 417.900269 331.122498 511.438751 331.122498 C 646.864807 331.122498 763.709167 408.913757 820.71405 522.293701 L 705.444458 611.737915 C 678.044312 529.852356 601.512817 469.068176 511.438751 469.068176 Z"/>
            <path id="path4" fill="none" stroke="none" d="M 857.877502 331.122498 L 165 331.122498 L 165 1024 L 857.877502 1024 Z"/>
        </g>
        <path id="Rectangle" fill="#737373" fill-rule="evenodd" stroke="none" d="M 165 1024 L 363.381775 1024 L 363.381775 0 L 165 0 Z"/>
    </g>
</svg>
